HIERARCHY
ROOT Hips
{
  OFFSET 5.84602e-005 68.8428 3.50346
  CHANNELS 6 Xposition Yposition Zposition Zrotation Xrotation Yrotation
  JOINT Spine
  {
    OFFSET 0 8.597 -4.6522
    CHANNELS 3 Zrotation Xrotation Yrotation
    JOINT Spine1
    {
      OFFSET 0 7.8454 0.4098
      CHANNELS 3 Zrotation Xrotation Yrotation
      JOINT Spine2
      {
        OFFSET 0 9.7078 -2.1609
        CHANNELS 3 Zrotation Xrotation Yrotation
        JOINT Neck
        {
          OFFSET 0 21.8761 -0.4549
          CHANNELS 3 Zrotation Xrotation Yrotation
          JOINT Head
          {
            OFFSET 0 12.3537 3.3602
            CHANNELS 3 Zrotation Xrotation Yrotation
            End Site
            {
              OFFSET 0.0001 18.9506 0.5657
            }
          }
        }
        JOINT LeftShoulder
        {
          OFFSET 2.2086 21.1115 7.2329
          CHANNELS 3 Zrotation Xrotation Yrotation
          JOINT LeftArm
          {
            OFFSET 13.1193 3.0282 -4.8998
            CHANNELS 3 Zrotation Xrotation Yrotation
            JOINT LeftForeArm
            {
              OFFSET 27.4081 -0.0973053 -0.2375
              CHANNELS 3 Zrotation Xrotation Yrotation
              JOINT LeftHand
              {
                OFFSET 22.8641 0.0662994 -0.1369
                CHANNELS 3 Zrotation Xrotation Yrotation
                JOINT LeftHandIndex1
                {
                  OFFSET 8.8614 0.775009 2.4612
                  CHANNELS 3 Zrotation Xrotation Yrotation
                  JOINT LeftHandIndex2
                  {
                    OFFSET 3.3146 -0.808304 0.5841
                    CHANNELS 3 Zrotation Xrotation Yrotation
                    JOINT LeftHandIndex3
                    {
                      OFFSET 2.2628 -0.552002 0.3989
                      CHANNELS 3 Zrotation Xrotation Yrotation
                      End Site
                      {
                        OFFSET 1.6102 -0.4807 0.2612
                      }
                    }
                  }
                }
                JOINT LeftHandMiddle1
                {
                  OFFSET 8.9937 0.895004 0.2143
                  CHANNELS 3 Zrotation Xrotation Yrotation
                  JOINT LeftHandMiddle2
                  {
                    OFFSET 4.0984 0.0113983 -0.0242
                    CHANNELS 3 Zrotation Xrotation Yrotation
                    JOINT LeftHandMiddle3
                    {
                      OFFSET 2.2716 0.00689697 -0.0138001
                      CHANNELS 3 Zrotation Xrotation Yrotation
                      End Site
                      {
                        OFFSET 2.0404 -0.1441 0.0027
                      }
                    }
                  }
                }
                JOINT LeftHandRing1
                {
                  OFFSET 8.5234 0.597198 -2.0164
                  CHANNELS 3 Zrotation Xrotation Yrotation
                  JOINT LeftHandRing2
                  {
                    OFFSET 3.7188 -0.188293 -0.2328
                    CHANNELS 3 Zrotation Xrotation Yrotation
                    JOINT LeftHandRing3
                    {
                      OFFSET 2.1191 -0.106598 -0.1332
                      CHANNELS 3 Zrotation Xrotation Yrotation
                      End Site
                      {
                        OFFSET 1.8737 -0.2304 -0.0886
                      }
                    }
                  }
                }
                JOINT LeftHandPinky1
                {
                  OFFSET 7.9094 -0.601089 -3.4825
                  CHANNELS 3 Zrotation Xrotation Yrotation
                  JOINT LeftHandPinky2
                  {
                    OFFSET 2.2874 -0.477005 -0.6314
                    CHANNELS 3 Zrotation Xrotation Yrotation
                    JOINT LeftHandPinky3
                    {
                      OFFSET 1.6774 -0.349396 -0.4633
                      CHANNELS 3 Zrotation Xrotation Yrotation
                      End Site
                      {
                        OFFSET 1.4888 -0.4091 -0.3416
                      }
                    }
                  }
                }
                JOINT LeftHandThumb1
                {
                  OFFSET 1.833 -1.3875 1.3896
                  CHANNELS 3 Zrotation Xrotation Yrotation
                  JOINT LeftHandThumb2
                  {
                    OFFSET 3.4129 -1.121 2.5732
                    CHANNELS 3 Zrotation Xrotation Yrotation
                    JOINT LeftHandThumb3
                    {
                      OFFSET 2.2474 -0.804199 1.6192
                      CHANNELS 3 Zrotation Xrotation Yrotation
                      End Site
                      {
                        OFFSET 1.6527 -0.5689 1.1317
                      }
                    }
                  }
                }
              }
            }
          }
        }
        JOINT RightShoulder
        {
          OFFSET -2.2086 21.1115 7.2329
          CHANNELS 3 Zrotation Xrotation Yrotation
          JOINT RightArm
          {
            OFFSET -13.1216 3.0287 -4.9007
            CHANNELS 3 Zrotation Xrotation Yrotation
            JOINT RightForeArm
            {
              OFFSET -27.4081 -0.0973053 -0.2375
              CHANNELS 3 Zrotation Xrotation Yrotation
              JOINT RightHand
              {
                OFFSET -22.8641 0.0664063 -0.1369
                CHANNELS 3 Zrotation Xrotation Yrotation
                JOINT RightHandIndex1
                {
                  OFFSET -8.8614 0.774994 2.4612
                  CHANNELS 3 Zrotation Xrotation Yrotation
                  JOINT RightHandIndex2
                  {
                    OFFSET -3.3146 -0.808304 0.5841
                    CHANNELS 3 Zrotation Xrotation Yrotation
                    JOINT RightHandIndex3
                    {
                      OFFSET -2.2628 -0.552002 0.3989
                      CHANNELS 3 Zrotation Xrotation Yrotation
                      End Site
                      {
                        OFFSET -1.6102 -0.4807 0.2612
                      }
                    }
                  }
                }
                JOINT RightHandMiddle1
                {
                  OFFSET -8.9937 0.894989 0.2143
                  CHANNELS 3 Zrotation Xrotation Yrotation
                  JOINT RightHandMiddle2
                  {
                    OFFSET -4.0984 0.0113983 -0.0242
                    CHANNELS 3 Zrotation Xrotation Yrotation
                    JOINT RightHandMiddle3
                    {
                      OFFSET -2.2716 0.00691223 -0.0138001
                      CHANNELS 3 Zrotation Xrotation Yrotation
                      End Site
                      {
                        OFFSET -2.0404 -0.1441 0.0027
                      }
                    }
                  }
                }
                JOINT RightHandRing1
                {
                  OFFSET -8.5234 0.597198 -2.0164
                  CHANNELS 3 Zrotation Xrotation Yrotation
                  JOINT RightHandRing2
                  {
                    OFFSET -3.7188 -0.188309 -0.2328
                    CHANNELS 3 Zrotation Xrotation Yrotation
                    JOINT RightHandRing3
                    {
                      OFFSET -2.1191 -0.106598 -0.1332
                      CHANNELS 3 Zrotation Xrotation Yrotation
                      End Site
                      {
                        OFFSET -1.8737 -0.2304 -0.0886
                      }
                    }
                  }
                }
                JOINT RightHandPinky1
                {
                  OFFSET -7.9094 -0.601105 -3.4825
                  CHANNELS 3 Zrotation Xrotation Yrotation
                  JOINT RightHandPinky2
                  {
                    OFFSET -2.2874 -0.477005 -0.6314
                    CHANNELS 3 Zrotation Xrotation Yrotation
                    JOINT RightHandPinky3
                    {
                      OFFSET -1.6774 -0.349396 -0.4633
                      CHANNELS 3 Zrotation Xrotation Yrotation
                      End Site
                      {
                        OFFSET -1.4888 -0.4091 -0.3416
                      }
                    }
                  }
                }
                JOINT RightHandThumb1
                {
                  OFFSET -1.833 -1.38751 1.3896
                  CHANNELS 3 Zrotation Xrotation Yrotation
                  JOINT RightHandThumb2
                  {
                    OFFSET -3.41299 -1.12099 2.5732
                    CHANNELS 3 Zrotation Xrotation Yrotation
                    JOINT RightHandThumb3
                    {
                      OFFSET -2.24741 -0.804108 1.6192
                      CHANNELS 3 Zrotation Xrotation Yrotation
                      End Site
                      {
                        OFFSET -1.6527 -0.5689 1.1317
                      }
                    }
                  }
                }
              }
            }
          }
        }
      }
    }
  }
  JOINT RightUpLeg
  {
    OFFSET -9.1966 3.8861 -0.7581
    CHANNELS 3 Zrotation Xrotation Yrotation
    JOINT RightLeg
    {
      OFFSET -0.7359 -41.0265 0
      CHANNELS 3 Zrotation Xrotation Yrotation
      JOINT RightFoot
      {
        OFFSET 0 -40.2855 0
        CHANNELS 3 Zrotation Xrotation Yrotation
        JOINT RightToeBase
        {
          OFFSET 0 -5.6122 11.7359
          CHANNELS 3 Zrotation Xrotation Yrotation
          End Site
          {
            OFFSET 0 0 7.8731
          }
        }
      }
    }
  }
  JOINT LeftUpLeg
  {
    OFFSET 9.1965 3.8864 -0.7581
    CHANNELS 3 Zrotation Xrotation Yrotation
    JOINT LeftLeg
    {
      OFFSET 0.7359 -41.0268 0
      CHANNELS 3 Zrotation Xrotation Yrotation
      JOINT LeftFoot
      {
        OFFSET 0 -40.2855 0
        CHANNELS 3 Zrotation Xrotation Yrotation
        JOINT LeftToeBase
        {
          OFFSET 0 -5.6122 11.7359
          CHANNELS 3 Zrotation Xrotation Yrotation
          End Site
          {
            OFFSET 0 0 7.8731
          }
        }
      }
    }
  }
}
MOTION
Frames:	4
Frame Time:	0.0333333
5.84602e-005 68.8428 3.50346 0 0 -0 0 0 -0 0 0 -0 0 0 -0 0 0 -0 0 0 -0 0 0 -0 0 0 -0 0 0 -0 0 0 -0 0 0 -0 0 0 -0 0 0 -0 0 0 -0 -0.0146107 -8.87603e-005 -2.63497e-007 2.99804e-018 -2.42657e-020 -1.42182e-022 0 0 -0 -0.0187562 -0.001176 5.858e-005 5.06224e-018 3.88251e-019 1.21329e-020 0 0 -0 -0.012269 -0.00324817 0.000675346 -1.74678e-018 3.88251e-019 -0 0 0 -0 0 0 -0 0 0 -0 0 0 -0 0 0 -0 0 0 -0 0 0 -0 0 0 -0 0 0 -0 0 0 -0 0 0 -0 0.0149955 -9.10982e-005 2.64101e-007 -9.69331e-018 1.21329e-020 -4.7394e-023 0 0 -0 0.0189956 -0.00119102 -5.96516e-005 -5.41541e-019 0 2.42657e-020 0 0 -0 0.0122698 -0.00324857 -0.000673756 -2.00796e-019 0 -1.94126e-019 0 0 -0 0 0 -0 0 0 -0 3.39842 1.33031 -0.0637918 -5.65207e-008 0.834868 -0.000436188 -3.39935 -2.16518 -0.0642563 -8.89002e-024 -1.18485e-023 -1.48106e-024 -3.39844 1.35642 0.0640283 -3.18788e-007 0.782166 -0.000588827 3.39931 -2.13858 0.0634662 1.1399e-023 0 -0 
0.738445 34.6745 2.63 -0 -11.0508 -0 -0.69289 13.4975 0.173825 -1.49454 26.9916 0.544987 -1.49454 26.9916 0.544986 0.00584817 -0.249839 0.00707855 -5.18381e-007 -0.254416 -2.94317e-007 -8.03602 -14.0035 -10.7329 8.57344 20.5786 -39.2064 29.6657 -15.742 -24.3899 28.9974 4.62615 -8.48338 -6.12453e-007 5.83135e-007 -8.13122e-008 -1.16627e-006 -1.22491e-006 -1.69389e-007 -1.19559e-006 -2.93177e-008 -1.66007e-007 -6.12453e-007 5.83135e-007 -8.13122e-008 -0.0146305 -8.85818e-005 2.07488e-006 -1.19559e-006 -2.92965e-008 -1.6601e-007 -6.12453e-007 5.83135e-007 -8.13122e-008 -0.01879 -0.0011791 6.02183e-005 -1.19559e-006 -2.929e-008 -1.65999e-007 -6.12453e-007 5.83135e-007 -8.13122e-008 -0.0121802 -0.00322522 0.000669755 -1.19559e-006 -2.92931e-008 -1.65976e-007 -6.12453e-007 5.83135e-007 -8.13122e-008 -1.16627e-006 -1.22491e-006 -1.69389e-007 -1.19559e-006 -2.93177e-008 -1.66007e-007 8.01863 -14.0044 10.7084 -8.58256 20.5952 39.1975 -29.6993 -15.7744 24.3772 -28.99 4.62455 8.45618 -1.98785e-016 -3.52843e-015 -0 -0 -3.57812e-015 -0 -3.97569e-016 -4.47266e-016 -0 -1.98785e-016 -3.52843e-015 -0 0.0149572 -9.25768e-005 5.33695e-007 1.98785e-016 -4.91992e-015 -7.95139e-016 -1.98785e-016 -3.52843e-015 -0 0.0189473 -0.00118749 -6.43592e-005 1.24141e-031 -4.47266e-015 1.59028e-015 -1.98785e-016 -3.52843e-015 -0 0.0122977 -0.00325392 -0.000683271 5.96354e-016 -2.98177e-015 -7.95139e-016 -1.98785e-016 -3.52843e-015 -0 -0 -3.57812e-015 -0 -3.97569e-016 -4.47266e-016 -0 -41.2911 -51.0791 -57.6599 -13.5079 79.1256 13.2703 -0.884318 -14.2741 1.34578 -0 -4.77083e-015 -0 41.2347 -51.1106 57.5168 13.3734 79.1283 -13.1222 0.832301 -14.2657 -1.31257 5.04014e-007 5.15576e-007 -1.71696e-006 
1.07096 19.2203 2.32846 -0 -16.3284 -0 -1.03258 19.5718 0.229621 -2.38611 39.1351 0.954445 -2.38611 39.1351 0.954445 -0.0204926 -0.402329 -0.0247829 -1.39231e-007 -0.449536 1.05868e-007 -13.4903 -19.7691 -16.3198 20.5706 21.6973 -58.646 38.4254 -20.3463 -36.3527 42.4163 6.48542 -12.4748 -6.83367e-007 1.83634e-007 -2.59887e-006 -0 -2.38542e-015 -0 7.95139e-016 -3.18055e-015 -0 -6.83367e-007 1.83634e-007 -2.59887e-006 -0.014599 -8.90345e-005 3.8396e-006 -7.95139e-016 1.59028e-015 -3.18055e-015 -6.83367e-007 1.83634e-007 -2.59887e-006 -0.0187663 -0.00117503 6.93068e-005 -6.84939e-007 1.83963e-007 -2.59882e-006 -6.83367e-007 1.83634e-007 -2.59887e-006 -0.0122706 -0.00324757 0.000678768 -0 -3.97569e-015 -0 -6.83367e-007 1.83634e-007 -2.59887e-006 -0 -2.38542e-015 -0 7.95139e-016 -3.18055e-015 -0 13.46 -19.7781 16.3524 -20.586 21.7234 58.6181 -38.4279 -20.3681 36.2998 -42.4328 6.45191 12.4867 3.80883e-007 1.91094e-007 6.35586e-009 1.59028e-015 -2.78299e-015 3.18055e-015 4.77736e-008 -9.52207e-008 -6.13945e-009 3.80883e-007 1.91094e-007 6.35586e-009 0.0150037 -9.14329e-005 9.33381e-007 4.77738e-008 -9.52215e-008 -6.127e-009 3.80883e-007 1.91094e-007 6.35586e-009 0.0190029 -0.0011919 -5.75968e-005 4.77738e-008 -9.52218e-008 -6.12414e-009 3.80883e-007 1.91094e-007 6.35586e-009 0.0122634 -0.00324684 -0.000671604 4.77741e-008 -9.52212e-008 -6.13061e-009 3.80883e-007 1.91094e-007 6.35586e-009 1.59028e-015 -2.78299e-015 3.18055e-015 4.77736e-008 -9.52207e-008 -6.13945e-009 -87.0385 -44.2877 -98.1509 -167.529 65.5268 166.362 -0.529658 -19.4277 -0.267759 -1.87902e-006 -1.01469e-006 -2.97015e-006 87.0617 -44.4145 98.0921 167.628 65.5424 -166.453 0.456869 -19.4189 0.316114 -6.35764e-007 -4.0728e-007 -3.2217e-006 
0.99706 22.401 2.46055 -0 -15.8331 -0 -0.956754 18.222 0.218418 -2.17128 36.4368 0.848128 -2.17127 36.4368 0.848126 -0.0792521 -0.455267 -0.0955781 -3.0715e-007 -0.585367 -6.97858e-007 -12.253 -18.219 -15.5684 17.6888 22.0557 -54.1297 36.2037 -19.2084 -33.0878 39.2405 5.76606 -11.8754 -1.59028e-015 1.19271e-015 6.36111e-015 -1.93696e-007 4.96292e-007 -2.32949e-008 1.6849e-007 2.71639e-007 -1.76352e-008 -1.59028e-015 1.19271e-015 6.36111e-015 -0.0146036 -8.8362e-005 5.50739e-006 1.6849e-007 2.71642e-007 -1.76007e-008 -1.59028e-015 1.19271e-015 6.36111e-015 -0.0187374 -0.00117491 5.11127e-005 1.6849e-007 2.71642e-007 -1.75925e-008 -1.59028e-015 1.19271e-015 6.36111e-015 -0.0122721 -0.00324853 0.000678679 1.68491e-007 2.7164e-007 -1.76109e-008 -1.59028e-015 1.19271e-015 6.36111e-015 -1.93696e-007 4.96292e-007 -2.32949e-008 1.6849e-007 2.71639e-007 -1.76352e-008 12.2167 -18.2416 15.74 -17.6934 22.0832 54.0609 -36.1212 -19.175 32.9585 -39.315 5.66937 11.9933 2.92627e-007 -8.98387e-008 7.46846e-007 1.39427e-007 7.83592e-008 6.76013e-009 7.91772e-008 2.98797e-007 -7.28819e-007 2.92627e-007 -8.98387e-008 7.46846e-007 0.0149967 -9.1291e-005 2.85612e-006 1.85902e-007 1.0448e-007 8.99971e-009 2.92627e-007 -8.98387e-008 7.46846e-007 0.0189869 -0.00119044 -6.23917e-005 8.1698e-008 2.98517e-007 -7.28878e-007 2.92627e-007 -8.98387e-008 7.46846e-007 0.0122676 -0.00324699 -0.00067981 8.07885e-008 2.98287e-007 -7.28944e-007 2.92627e-007 -8.98387e-008 7.46846e-007 1.39427e-007 7.83592e-008 6.76013e-009 7.91772e-008 2.98797e-007 -7.28819e-007 -78.2251 -47.2795 -90.8469 -164.108 72.769 163.56 -0.896655 -18.2074 0.0551706 6.13552e-007 6.84703e-007 6.33962e-006 78.2213 -47.3897 90.7571 164.233 72.7851 -163.676 0.826801 -18.1976 -0.0108171 6.36111e-015 1.59028e-015 6.36111e-015 
